<svg width="13" height="11" viewBox="0 0 13 11" fill="none" xmlns="http://www.w3.org/2000/svg">
<path d="M4.53172 5.5C5.96781 5.5 7.13172 4.26873 7.13172 2.75C7.13172 1.23127 5.96781 0 4.53172 0C3.11391 0 1.95 1.23127 1.95 2.75C1.95 4.26873 3.11391 5.5 4.53172 5.5ZM5.57984 6.53125H3.52016C1.57645 6.53125 0 8.20059 0 10.2566C0 10.667 0.31525 11 0.704031 11H6.52153C6.49622 10.8812 6.49248 10.757 6.51578 10.6339L6.80585 9.09971C6.84496 8.89157 6.94168 8.70044 7.08372 8.55057L8.01241 7.5683C7.37953 6.92656 6.52437 6.53125 5.57984 6.53125ZM7.54406 9.03633C7.49298 9.09033 7.45818 9.15914 7.44404 9.23405L7.15398 10.7682C7.12843 10.9034 7.24118 11.0226 7.36909 10.9958L8.81981 10.6888C8.89057 10.6738 8.95556 10.637 9.00658 10.583L11.5517 7.89102L10.089 6.34393L7.54406 9.03633ZM12.7867 5.49355L12.3581 5.04002C12.0725 4.73795 11.6096 4.73795 11.324 5.04002L10.5495 5.85943L12.0122 7.40652L12.7867 6.58732C13.0711 6.28418 13.0711 5.79434 12.7867 5.49355Z" fill="white"/>
</svg>
