<svg width="19" height="16" viewBox="0 0 19 16" fill="none" xmlns="http://www.w3.org/2000/svg">
<g clip-path="url(#clip0_598_339)">
<path d="M6.86111 1.5C6.86111 2.32844 6.15191 3 5.27778 3C4.40365 3 3.69445 2.32844 3.69445 1.5C3.69445 0.671562 4.40365 0 5.27778 0C6.15191 0 6.86111 0.671562 6.86111 1.5ZM5.01389 11V15C5.01389 15.5531 4.54219 16 3.95834 16C3.37448 16 2.90278 15.5531 2.90278 15V8.02812L1.96037 9.51562C1.66019 9.9875 1.01169 10.1406 0.511947 9.85625C0.0122076 9.57187 -0.149457 8.95938 0.150848 8.48438L2.07318 5.45625C2.64549 4.55313 3.67465 4 4.78629 4H5.76927C6.8809 4 7.91007 4.55313 8.48403 5.45625L9.96511 7.79063C9.40434 8.34062 9.0184 8.99062 8.75781 9.7125C8.69514 9.65312 8.61267 9.5875 8.59618 9.51562L7.65278 8.02812V15C7.65278 15.5531 7.18108 16 6.59722 16C6.01337 16 5.54167 15.5531 5.54167 15V11H5.01389ZM9.5 11.5C9.5 9.01562 11.6276 7 14.25 7C16.8724 7 19 9.01562 19 11.5C19 13.9844 16.8724 16 14.25 16C11.6276 16 9.5 13.9844 9.5 11.5ZM14.25 14.5C14.6887 14.5 15.0417 14.1656 15.0417 13.75C15.0417 13.3344 14.6887 13 14.25 13C13.8113 13 13.4583 13.3344 13.4583 13.75C13.4583 14.1656 13.8113 14.5 14.25 14.5ZM12.1389 10.25C12.1389 10.525 12.3764 10.75 12.6667 10.75C12.9569 10.75 13.1944 10.525 13.1944 10.25V10.05C13.1944 9.88438 13.3363 9.75 13.5111 9.75H14.847C15.101 9.75 15.3056 9.94375 15.3056 10.1844C15.3056 10.3469 15.2099 10.4937 15.0615 10.5719L14.0059 11.0969C13.8311 11.1844 13.7222 11.3531 13.7222 11.5375V12C13.7222 12.275 13.9597 12.5 14.25 12.5C14.5403 12.5 14.7778 12.275 14.7778 12V11.8406L15.553 11.4563C16.0477 11.2063 16.3611 10.6906 16.3611 10.1844C16.3611 9.39375 15.6816 8.75 14.847 8.75H13.5111C12.7524 8.75 12.1389 9.33125 12.1389 10.05V10.25Z" fill="white"/>
</g>
<defs>
<clipPath id="clip0_598_339">
<rect width="19" height="16" fill="white"/>
</clipPath>
</defs>
</svg>
