<svg width="14" height="14" viewBox="0 0 14 14" fill="none" xmlns="http://www.w3.org/2000/svg">
<g clip-path="url(#clip0_599_341)">
<path d="M3.73516 3.79495C3.46053 3.87258 3.20906 4.01618 3.00265 4.21325C2.79623 4.41032 2.64115 4.65488 2.5509 4.92562L0 12.578L0.40168 12.9797L4.50625 8.87515C4.42449 8.70398 4.375 8.51476 4.375 8.31241C4.375 7.58753 4.96262 6.99991 5.6875 6.99991C6.41238 6.99991 7 7.58753 7 8.31241C7 9.0373 6.41238 9.62491 5.6875 9.62491C5.48516 9.62491 5.29594 9.57542 5.12477 9.49366L1.0202 13.5982L1.42188 13.9999L9.0743 11.449C9.34503 11.3588 9.58959 11.2037 9.78666 10.9973C9.98374 10.7909 10.1273 10.5394 10.205 10.2648L11.375 6.12491L7.875 2.62492L3.73516 3.79495ZM13.6155 2.028L11.9719 0.384369C11.4592 -0.128326 10.6277 -0.128326 10.115 0.384369L8.56871 1.93066L12.0693 5.4312L13.6155 3.88492C14.1282 3.37222 14.1282 2.54097 13.6155 2.028Z" fill="white"/>
</g>
<defs>
<clipPath id="clip0_599_341">
<rect width="14" height="14" fill="white"/>
</clipPath>
</defs>
</svg>
